<svg xmlns="http://www.w3.org/2000/svg" xmlns:xlink="http://www.w3.org/1999/xlink" width="160" height="80" viewBox="0 0 160 80">
  <defs>
    <clipPath id="clip-path">
      <rect id="Rectangle_2964" data-name="Rectangle 2964" width="160" height="80" transform="translate(1100 168)" fill="none"/>
    </clipPath>
  </defs>
  <g id="Mask_Group_4279" data-name="Mask Group 4279" transform="translate(-1100 -168)" clip-path="url(#clip-path)">
    <g id="content-marketing" transform="translate(1140.003 168)">
      <path id="Path_14960" data-name="Path 14960" d="M52.539,1a3.834,3.834,0,0,0-3.7,3.274,25.044,25.044,0,0,1-15.151,5.979A1.291,1.291,0,0,0,32.44,8.972H21.134a5.176,5.176,0,0,0-5.025,5.314v4.143c-.18.17-.361.336-.536.51l.536.606V19.6a5.176,5.176,0,0,0,5.025,5.314h.322l3.5,12.339a1.267,1.267,0,0,0,1.2.947H32.44a1.235,1.235,0,0,0,1.008-.535,1.391,1.391,0,0,0,.2-1.175L30.36,24.915h2.08a1.291,1.291,0,0,0,1.247-1.282,25.044,25.044,0,0,1,15.151,5.979,3.808,3.808,0,0,0,4.039,3.218A3.9,3.9,0,0,0,56.307,28.9V19.544l.536-.606c-.176-.174-.357-.34-.536-.51V4.986A3.882,3.882,0,0,0,52.539,1ZM30.751,35.543H27.093L24.079,24.915h3.658Zm.432-13.286H21.134A2.588,2.588,0,0,1,18.622,19.6V14.286a2.588,2.588,0,0,1,2.512-2.657H31.184ZM33.7,12.909A27.372,27.372,0,0,0,48.77,7.654V26.233A27.372,27.372,0,0,0,33.7,20.977ZM53.795,28.9a1.258,1.258,0,1,1-2.512,0V4.986a1.258,1.258,0,1,1,2.512,0Z" transform="translate(3.788 -1)" fill="#fff"/>
      <path id="Path_14961" data-name="Path 14961" d="M66.925,37.062H60.7l-1.123-.25c-.019.084-.043.166-.061.25H40.354a5.314,5.314,0,0,0-5.314,5.314V59.382l-.159.024.159,1.2v5.689a5.314,5.314,0,0,0,5.314,5.314H66.925a5.314,5.314,0,0,0,5.314-5.314V42.376A5.314,5.314,0,0,0,66.925,37.062ZM40.354,39.719H66.925a2.657,2.657,0,0,1,2.657,2.657H37.7A2.657,2.657,0,0,1,40.354,39.719ZM66.925,68.948H40.354A2.657,2.657,0,0,1,37.7,66.291V45.033H69.583V66.291A2.657,2.657,0,0,1,66.925,68.948Z" transform="translate(7.754 8.388)" fill="#fff"/>
      <path id="Path_14962" data-name="Path 14962" d="M56.836,50.643l1.98-1.98-1.879-1.879-1.98,1.98a6.591,6.591,0,0,0-2.329-.974V45H49.972v2.79a6.591,6.591,0,0,0-2.329.973l-1.98-1.98-1.879,1.879,1.98,1.98a6.6,6.6,0,0,0-.974,2.33H42v2.657h2.79a6.6,6.6,0,0,0,.973,2.329l-1.98,1.98,1.879,1.879,1.98-1.98a6.591,6.591,0,0,0,2.33.974V63.6h2.657V60.81a6.591,6.591,0,0,0,2.329-.973l1.98,1.98,1.879-1.879-1.98-1.98a6.6,6.6,0,0,0,.974-2.33H60.6V52.972H57.81A6.6,6.6,0,0,0,56.836,50.643ZM51.3,58.286A3.986,3.986,0,1,1,55.286,54.3,3.986,3.986,0,0,1,51.3,58.286Z" transform="translate(10.093 11.079)" fill="#fff"/>
      <path id="Path_14963" data-name="Path 14963" d="M1,52.929a19.908,19.908,0,0,0,36.935,10.34c.165.023.327.049.49.069l.133-1.143A19.906,19.906,0,0,0,11.662,35.3l-1.141.133c.019.163.047.327.068.49A19.913,19.913,0,0,0,1,52.929ZM16.943,69.718V63.557H14.286v5.314c-.454-.19-.894-.4-1.329-.632V62.229a4.2,4.2,0,0,1,2.874-3.986l1.112-.371v.371a3.986,3.986,0,0,0,7.972,0v-.371l1.113.371A4.2,4.2,0,0,1,28.9,62.229v6.007c-.434.227-.874.442-1.329.632v-5.31H24.915v6.161a16.711,16.711,0,0,1-7.972,0ZM24.915,51.6a3.986,3.986,0,0,1-7.972,0V48.943h2.344a6.1,6.1,0,0,0,4.473-1.932l1.155,1.153ZM19.6,58.11a6.643,6.643,0,0,0,2.657,0v.133a1.329,1.329,0,1,1-2.657,0Zm7.972-6.51V50.272a1.329,1.329,0,0,1,0,2.657h-.133A6.643,6.643,0,0,0,27.572,51.6Zm0-3.986a1.328,1.328,0,0,0-.389-.939l-2.657-2.657a1.329,1.329,0,0,0-2.126.345,3.454,3.454,0,0,1-3.113,1.922H15.614a1.329,1.329,0,0,0-1.329,1.329V44.957a3.986,3.986,0,0,1,3.986-3.986h5.314A1.329,1.329,0,0,1,24.915,42.3a1.329,1.329,0,0,0,1.329,1.329,1.329,1.329,0,0,1,1.329,1.329ZM14.286,50.272V51.6a6.643,6.643,0,0,0,.133,1.329h-.133a1.329,1.329,0,0,1,0-2.657Zm6.643-14.614A17.253,17.253,0,0,1,31.557,66.515V62.229a6.845,6.845,0,0,0-4.69-6.51l-.412-.133h1.116a3.971,3.971,0,0,0,2.657-6.935V44.957A3.986,3.986,0,0,0,27.4,41.143a3.986,3.986,0,0,0-3.814-2.828H18.272a6.651,6.651,0,0,0-6.643,6.643v3.693a3.971,3.971,0,0,0,2.657,6.935H15.4l-.413.133a6.845,6.845,0,0,0-4.69,6.51v4.286A17.253,17.253,0,0,1,20.929,35.657Z" transform="translate(-1 7.136)" fill="#fff"/>
      <path id="Path_14964" data-name="Path 14964" d="M9.117,25.375l2.532.8c.248-.784.531-1.569.85-2.333l-2.455-1.015C9.7,23.662,9.388,24.519,9.117,25.375Z" transform="translate(1.667 5.298)" fill="#fff"/>
      <path id="Path_14965" data-name="Path 14965" d="M10.675,21.561l2.36,1.221c.379-.732.8-1.461,1.234-2.154l-2.247-1.419C11.543,19.97,11.088,20.761,10.675,21.561Z" transform="translate(2.179 4.253)" fill="#fff"/>
      <path id="Path_14966" data-name="Path 14966" d="M12.849,18.05l2.126,1.6c.5-.658,1.028-1.3,1.581-1.917l-1.977-1.775C13.97,16.632,13.39,17.333,12.849,18.05Z" transform="translate(2.417 3.315)" fill="#fff"/>
      <path id="Path_14967" data-name="Path 14967" d="M8.223,29.378l2.632.357c.112-.814.259-1.635.441-2.441L8.7,26.712C8.506,27.592,8.343,28.488,8.223,29.378Z" transform="translate(1.373 6.425)" fill="#fff"/>
      <path id="Path_14968" data-name="Path 14968" d="M8,32.411q0,.523.017,1.043l2.657-.088c-.017-.318-.017-.635-.017-.955,0-.513.013-1.023.039-1.528L8.039,30.75C8.015,31.3,8,31.851,8,32.411Z" transform="translate(1.3 7.595)" fill="#fff"/>
      <path id="Path_14969" data-name="Path 14969" d="M48.511,17.9c.6.683,1.181,1.406,1.727,2.147l2.143-1.564c-.59-.81-1.221-1.594-1.879-2.344Z" transform="translate(12.699 3.364)" fill="#fff"/>
      <path id="Path_14970" data-name="Path 14970" d="M56.464,35.779c.124-.984.2-1.993.234-2.992L54.041,32.7c-.029.922-.1,1.845-.214,2.749Z" transform="translate(13.98 8.153)" fill="#fff"/>
      <path id="Path_14971" data-name="Path 14971" d="M53.734,28.666c.141.9.242,1.824.3,2.74l2.657-.163c-.061-1-.17-2-.326-2.985Z" transform="translate(13.949 6.869)" fill="#fff"/>
      <path id="Path_14972" data-name="Path 14972" d="M52.708,24.78c.308.854.581,1.739.808,2.631l2.575-.664c-.248-.971-.546-1.938-.882-2.872Z" transform="translate(13.612 5.599)" fill="#fff"/>
      <path id="Path_14973" data-name="Path 14973" d="M50.945,21.145c.468.788.9,1.608,1.29,2.433l2.4-1.132c-.424-.9-.9-1.795-1.407-2.657Z" transform="translate(13.033 4.418)" fill="#fff"/>
      <path id="Path_14974" data-name="Path 14974" d="M31.16,56.646q.557.02,1.116.02.772,0,1.532-.036l-.126-2.657c-.806.039-1.625.041-2.434.016Z" transform="translate(7.715 14.027)" fill="#fff"/>
    </g>
  </g>
</svg>
