<svg xmlns="http://www.w3.org/2000/svg" xmlns:xlink="http://www.w3.org/1999/xlink" width="160" height="80" viewBox="0 0 160 80">
  <defs>
    <clipPath id="clip-path">
      <rect id="Rectangle_2963" data-name="Rectangle 2963" width="160" height="80" transform="translate(1100 44)" fill="none"/>
    </clipPath>
  </defs>
  <g id="Mask_Group_4277" data-name="Mask Group 4277" transform="translate(-1100 -44)" clip-path="url(#clip-path)">
    <g id="consultation" transform="translate(1138.616 44)">
      <path id="Path_1643" data-name="Path 1643" d="M201.345,20.819l9.828-7.916h12.867V0H192V12.9h9.345Zm-6.675-10.5V2.581h26.7v7.742H210.206l-6.192,4.987V10.323Zm0,0" transform="translate(-159.961)" fill="#fff"/>
      <path id="Path_1644" data-name="Path 1644" d="M224,32h2.67v2.581H224Zm0,0" transform="translate(-186.621 -26.839)" fill="#fff"/>
      <path id="Path_1645" data-name="Path 1645" d="M256,32h10.68v2.581H256Zm0,0" transform="translate(-213.281 -26.839)" fill="#fff"/>
      <path id="Path_1646" data-name="Path 1646" d="M336,32h2.67v2.581H336Zm0,0" transform="translate(-279.932 -26.839)" fill="#fff"/>
      <path id="Path_1647" data-name="Path 1647" d="M67.956,178.064l-1.079-10.445a9.138,9.138,0,0,0,7.881-8.909V141.935h-5.34v-1.783a4.625,4.625,0,0,0-2.6-4.137,7.6,7.6,0,0,0,2.6-5.693v-2.581a8.014,8.014,0,0,0-16.019,0v2.581a7.768,7.768,0,0,0,5.277,7.268l-7.165,6.925H44.024a5.216,5.216,0,0,0-3.843-4.624l-5.472-1.51v-2.3a7.606,7.606,0,0,0,2.67-5.755v-2.581a8.014,8.014,0,0,0-16.019,0v2.581a7.61,7.61,0,0,0,2.67,5.755v2.306l-5.472,1.51a5.209,5.209,0,0,0-3.873,4.963v4.822H9.345v7.742h2.67v20.645H0v2.581H82.767v-2.581ZM56.068,157.419V151.5l9.459-9.143a3.985,3.985,0,0,0,1.182-2.475,2.033,2.033,0,0,1,.038.268v15.977a3.945,3.945,0,0,1-4,3.871H52.063v-2.581Zm-4,10.323h6.8l1.068,10.323h-7.87Zm9.485,0h2.657l1.068,10.323H62.616Zm7.87-11.613V144.516h2.67V158.71a6.574,6.574,0,0,1-6.675,6.452H52.063v-2.581h10.68A6.574,6.574,0,0,0,69.418,156.129Zm-13.35-25.806v-2.581a5.343,5.343,0,0,1,10.68,0v2.581a5.343,5.343,0,0,1-10.68,0ZM52.616,147.1l8.907-8.609a1.534,1.534,0,0,1,1.059-.423,1.474,1.474,0,0,1,1.5,1.447,1.432,1.432,0,0,1-.438,1.023l-9.459,9.143H40.049a1.291,1.291,0,1,1,0-2.581ZM24.029,127.742a5.343,5.343,0,0,1,10.68,0v2.581a5.343,5.343,0,0,1-10.68,0Zm5.34,10.323a8.218,8.218,0,0,0,2.67-.452V139a3.419,3.419,0,0,1-2.67,1.646A3.419,3.419,0,0,1,26.7,139v-1.386A8.218,8.218,0,0,0,29.369,138.064Zm-12.015,6.791a2.606,2.606,0,0,1,1.936-2.482l5.5-1.518a5.608,5.608,0,0,0,9.158,0l5.5,1.518a2.6,2.6,0,0,1,1.879,2.142H40.049a3.945,3.945,0,0,0-4,3.871,3.7,3.7,0,0,0,.246,1.29H17.354Zm-5.34,7.4H53.4v2.581H12.015Zm2.67,10.323h4V160h-4v-2.581H49.393V160H21.359v2.581H49.393v15.484h-3.18l-2.67-5.161H20.534l-2.67,5.161h-3.18Zm28.544,15.484H20.85l1.335-2.581H41.893Zm0,0" transform="translate(0 -100.645)" fill="#fff"/>
    </g>
  </g>
</svg>
