<svg xmlns="http://www.w3.org/2000/svg" xmlns:xlink="http://www.w3.org/1999/xlink" width="160" height="80" viewBox="0 0 160 80">
  <defs>
    <clipPath id="clip-path">
      <rect id="Rectangle_2966" data-name="Rectangle 2966" width="160" height="80" transform="translate(340 168)" fill="none"/>
    </clipPath>
  </defs>
  <g id="Mask_Group_4278" data-name="Mask Group 4278" transform="translate(-340 -168)" clip-path="url(#clip-path)">
    <g id="knowledge" transform="translate(380.058 168)">
      <path id="Path_1704" data-name="Path 1704" d="M75.2,25.816h-1.56V22.7a1.56,1.56,0,0,0-1.56-1.56H59.246A20.354,20.354,0,0,0,47.416,8.513a1.56,1.56,0,0,0-1.15,2.9A17.149,17.149,0,0,1,48.39,42.292,6.062,6.062,0,0,0,45.4,47.6V49.22H41.5V32.7l4.224-4.224a1.56,1.56,0,1,0-2.207-2.207L39.942,29.85l-3.577-3.578a1.56,1.56,0,1,0-2.207,2.207L38.382,32.7V49.22h-3.9V47.6a6.086,6.086,0,0,0-3.005-5.318,17.14,17.14,0,0,1,2.15-30.865,1.56,1.56,0,0,0-1.163-2.9A20.454,20.454,0,0,0,20.628,21.135H7.8a1.56,1.56,0,0,0-1.56,1.56v3.121H4.681A4.686,4.686,0,0,0,0,30.5V77.618A4.686,4.686,0,0,0,4.681,82.3h24.34A4.686,4.686,0,0,0,33.7,86.98H46.183A4.686,4.686,0,0,0,50.864,82.3H75.2a4.686,4.686,0,0,0,4.681-4.681V30.5A4.686,4.686,0,0,0,75.2,25.816ZM48.524,47.6a2.941,2.941,0,0,1,1.4-2.595A20.264,20.264,0,0,0,59.986,24.256H70.523V72.937h-25.9a6.2,6.2,0,0,0-3.12.839V61.7h.78a6.248,6.248,0,0,0,6.241-6.241ZM45.4,52.341v3.121a3.124,3.124,0,0,1-3.12,3.121H37.6a3.124,3.124,0,0,1-3.12-3.121V52.341ZM9.361,24.254H19.895a20.216,20.216,0,0,0,10.04,20.74,2.963,2.963,0,0,1,1.426,2.6v7.862A6.248,6.248,0,0,0,37.6,61.7h.78V73.776a6.2,6.2,0,0,0-3.12-.839H9.361ZM32.141,82.3a3.124,3.124,0,0,0-3.12-3.121H4.681a1.562,1.562,0,0,1-1.56-1.56V30.5a1.562,1.562,0,0,1,1.56-1.56h1.56V74.5a1.56,1.56,0,0,0,1.56,1.56h27.46a3.124,3.124,0,0,1,3.12,3.121v4.681H33.7A1.562,1.562,0,0,1,32.141,82.3Zm44.623-4.681a1.562,1.562,0,0,1-1.56,1.56H50.864a3.124,3.124,0,0,0-3.12,3.121,1.562,1.562,0,0,1-1.56,1.56H41.5V79.178a3.124,3.124,0,0,1,3.12-3.121h27.46a1.56,1.56,0,0,0,1.56-1.56V28.936H75.2a1.562,1.562,0,0,1,1.56,1.56Z" transform="translate(0 -6.98)" fill="#fff"/>
      <circle id="Ellipse_6" data-name="Ellipse 6" cx="1.735" cy="1.735" r="1.735" transform="translate(38.265 0)" fill="#fff"/>
    </g>
  </g>
</svg>
