<svg xmlns="http://www.w3.org/2000/svg" xmlns:xlink="http://www.w3.org/1999/xlink" width="160" height="80" viewBox="0 0 160 80">
  <defs>
    <clipPath id="clip-path">
      <rect id="Rectangle_2965" data-name="Rectangle 2965" width="160" height="80" transform="translate(720 168)" fill="none"/>
    </clipPath>
  </defs>
  <g id="Mask_Group_4280" data-name="Mask Group 4280" transform="translate(-720 -168)" clip-path="url(#clip-path)">
    <g id="work-life" transform="translate(760 168)">
      <path id="Path_14958" data-name="Path 14958" d="M11.681,38H9v4.021a1.34,1.34,0,0,0,.393.948l4.022,4.022,1.9-1.9-3.629-3.629Z" transform="translate(1.724 9.517)" fill="#fff"/>
      <path id="Path_14959" data-name="Path 14959" d="M79.71,43.581H74.548V39.71a1.29,1.29,0,0,0-1.29-1.29H70.677V30.44a3.862,3.862,0,0,0-1.29-7.5H54L47.476,22a7.692,7.692,0,0,0,.814-1.649h.452a3.857,3.857,0,0,0,2.581-6.735V8.742a3.879,3.879,0,0,0-2.7-3.69A5.17,5.17,0,0,0,43.581,1H37.129a6.459,6.459,0,0,0-6.452,6.452v6.168a3.857,3.857,0,0,0,2.581,6.735h.452A7.692,7.692,0,0,0,34.524,22L28,22.935H12.613a3.862,3.862,0,0,0-1.29,7.5V41.076a11.613,11.613,0,1,0,2.581,0v-10.4h12.9v1.29a1.29,1.29,0,0,0,1.29,1.29h3.871V74.1a5.631,5.631,0,0,0-1.29,3.566V79.71A1.29,1.29,0,0,0,31.968,81H50.032a1.29,1.29,0,0,0,1.29-1.29V77.665a5.634,5.634,0,0,0-1.29-3.569V33.258H53.9a1.29,1.29,0,0,0,1.29-1.29v-1.29H68.1v7.742H65.516a1.29,1.29,0,0,0-1.29,1.29v3.871H59.065a1.29,1.29,0,0,0-1.29,1.29V62.935a1.29,1.29,0,0,0,1.29,1.29H79.71A1.29,1.29,0,0,0,81,62.935V44.871A1.29,1.29,0,0,0,79.71,43.581ZM41,22.935a5.161,5.161,0,0,1-5.161-5.161V13.9H38.21a6.943,6.943,0,0,0,5.715-2.991l2.236,2.235v4.627A5.161,5.161,0,0,1,41,22.935Zm0,2.581a7.711,7.711,0,0,0,2.409-.387,2.568,2.568,0,0,1-4.818,0A7.711,7.711,0,0,0,41,25.516Zm7.742-7.742V15.194a1.29,1.29,0,0,1,0,2.581ZM33.258,7.452a3.871,3.871,0,0,1,3.871-3.871h6.452a2.581,2.581,0,0,1,2.581,2.581,1.29,1.29,0,0,0,1.29,1.29,1.29,1.29,0,0,1,1.29,1.29v3.871a1.29,1.29,0,0,0-.378-.912L44.493,7.83a1.29,1.29,0,0,0-2.137.5,4.364,4.364,0,0,1-4.146,2.988H34.548a1.29,1.29,0,0,0-1.29,1.29Zm-1.29,9.032a1.29,1.29,0,0,1,1.29-1.29v2.581A1.29,1.29,0,0,1,31.968,16.484Zm-13.956,28.9-1.15,1.15,1.825,1.825,1.15-1.15a8.964,8.964,0,0,1,1.706,4.111H19.065V53.9h2.477a8.964,8.964,0,0,1-1.7,4.108l-1.15-1.15-1.825,1.825,1.15,1.15A8.964,8.964,0,0,1,13.9,61.542V59.065H11.323v2.477a8.964,8.964,0,0,1-4.108-1.7l1.15-1.15L6.539,56.862l-1.15,1.15A8.964,8.964,0,0,1,3.684,53.9H6.161V51.323H3.684a8.964,8.964,0,0,1,1.7-4.108l1.15,1.15,1.825-1.825L7.214,45.387a8.964,8.964,0,0,1,4.108-1.7v2.477H13.9V43.684a8.964,8.964,0,0,1,4.108,1.7Zm-5.4-17.29a1.29,1.29,0,1,1,0-2.581H26.807V28.1Zm27.1,23.226V73.258H34.548V48.742h12.9V73.258H42.29V51.323ZM33.258,77.663a3.1,3.1,0,0,1,.6-1.825h5.85v2.581H33.258Zm15.484.756H42.29V75.839h5.85a3.1,3.1,0,0,1,.6,1.825Zm3.871-47.742H48.742a1.29,1.29,0,0,0-1.29,1.29V46.161h-12.9V31.968a1.29,1.29,0,0,0-1.29-1.29H29.387V25.345l6.471-.924a5.145,5.145,0,0,0,10.284,0l6.471.924Zm2.581-5.161H69.387a1.29,1.29,0,1,1,0,2.581H55.194ZM68.1,48.742v2.581H63.733l-2.581-5.161h16.47l-2.581,5.161H70.677V48.742ZM66.807,41h5.161v2.581H66.807ZM60.355,61.645V50.337l1.419,2.853a1.29,1.29,0,0,0,1.161.714H68.1v2.581h2.581V53.9h5.161A1.29,1.29,0,0,0,77,53.19l1.419-2.853V61.645Z" transform="translate(-1 -1)" fill="#fff"/>
    </g>
  </g>
</svg>
